<svg id="Layer_1" xmlns="http://www.w3.org/2000/svg" viewBox="-206 8.4 785.6 785.6">
  <style>
    .st0{fill:#878787;} .st1{fill:#FFFFFF;} .st2{}
  </style>
  <path id="XMLID_2_" class="st0" d="M186.8 8.4C-30.1 8.4-206 184.3-206 401.2S-30.1 794 186.8 794s392.8-175.9 392.8-392.8S403.7 8.4 186.8 8.4z"/>
  <g id="XMLID_3_">
    <path id="XMLID_4_" class="st1" d="M176.1 216H-29.6v-24.6H176V216h.1zm-16.9 72.8c0 8.8-5 17.9-14.9 27.2s-18.3 15.6-25.1 18.9l-30.5-34.5c11.4-1.1 21-5.2 28.8-12.3 7.8-7.1 11.7-14.1 11.7-21 0-2.8-2.2-6.3-6.7-10.3s-10.3-6-17.5-6c-8.8 0-18.8 4.1-29.9 12.2s-20.6 18.6-28.3 31.5c-7.8 12.9-11.7 25.8-11.7 38.8v86.1l-39.2-20.3V248.7h39.5v15.4c1.1-1.1 5.1-3.6 12-7.5s15-7.5 24.1-10.7c9.2-3.2 18.4-4.8 27.8-4.8 7.9 0 16.5 1.9 25.9 5.8s17.5 9.4 24.1 16.8c6.6 7.4 9.9 15.7 9.9 25.1z"/>
    <path id="XMLID_7_" class="st1" d="M403.1 216H170v-24.6h233.1V216zm-16.3 112.2c0 14.8-4.5 28.7-13.4 41.8-8.9 13.1-20 23.4-33.2 31s-25.6 11.4-37.1 11.4c-10.4 0-21.6-4.3-33.6-12.8s-26.7-21.1-44.2-37.6v172.3l-32.5-17.1V248.3h31.7v49.6c2.4-2.6 6.5-6.9 12.3-13s12.4-12.5 19.8-19.2 15.6-12.7 24.6-17.9c8.9-5.2 17.3-7.8 25.2-7.8 7.4 0 15.8 2.5 25.1 7.6s18.2 11.8 26.6 20.2c8.5 8.4 15.4 17.9 20.7 28.6 5.3 10.6 8 21.2 8 31.8zm-19.9-23.6c0-3.3-1.3-7.8-4-13.6-2.6-5.8-6.7-11.1-12.1-16-5.4-4.8-12.1-7.2-20.1-7.2-9 0-19 3-30.1 8.9-11.1 6-21.7 13.4-31.8 22.5-10 9-18.3 18.2-24.7 27.6-6.4 9.4-9.7 17.1-9.7 23.1 0 4.2 2.4 8.5 7.1 12.9 4.8 4.4 10.9 8.1 18.3 11.2 7.5 3 14.9 4.6 22.2 4.6 12.2 0 23.6-2.6 34.3-7.8 10.6-5.2 19.7-11.7 27.1-19.4s13.2-15.8 17.3-24.3c4.1-8.5 6.2-16 6.2-22.5z"/>
  </g>
  <path class="smile-curve" d="M-57.4 518.4C-10.3 607.9 83.6 669 191.8 669c109.8 0 204.9-62.9 251.2-154.6"/>
</svg>
